<svg width="32" height="32" viewBox="0 0 32 32" fill="none" xmlns="http://www.w3.org/2000/svg">
<g clip-path="url(#clip0_1_558)">
<path d="M2.5 12.6792C2.5 15.2722 3.81423 17.5649 5.82688 18.9554L14.4105 26.4445C15.4302 27.3342 16.9537 27.3224 17.9594 26.4168L26.592 18.6451C28.3662 17.2371 29.5 15.0877 29.5 12.6792C29.5 8.43814 25.9839 5 21.6464 5C19.4299 5 17.428 5.89774 16 7.34164C14.572 5.89774 12.5701 5 10.3537 5C6.01622 5 2.5 8.43814 2.5 12.6792Z" fill="#FF4B4B" stroke="white" stroke-width="1.88235"/>
<path opacity="0.3" fill-rule="evenodd" clip-rule="evenodd" d="M10.0347 15.9895C11.7686 15.9895 13.1743 14.5424 13.1743 12.7573C13.1743 10.9721 11.7686 9.52509 10.0347 9.52509C8.30082 9.52509 6.8952 10.9721 6.8952 12.7573C6.8952 14.5424 8.30082 15.9895 10.0347 15.9895Z" fill="white"/>
</g>
<defs>
<clipPath id="clip0_1_558">
<rect width="32" height="32" fill="white"/>
</clipPath>
</defs>
</svg>
