<svg width="27" height="26" viewBox="0 0 27 26" fill="none" xmlns="http://www.w3.org/2000/svg">
<g clip-path="url(#clip0_1_539)">
<g clip-path="url(#clip1_1_539)">
<path d="M0.92563 14.4507L0.90483 7.11958C0.900496 5.48851 1.95003 4.28211 3.51523 4.54558C3.82463 4.59758 4.33163 4.75791 4.59856 4.90091L6.0641 5.68525L8.88076 2.13451C9.35358 1.53858 10.0726 1.1912 10.8334 1.1912C11.5941 1.1912 12.3131 1.53858 12.786 2.13451L18.6533 9.53238C20.0401 11.2131 20.799 13.3239 20.8 15.5028C20.8 20.8285 16.3306 25.1324 10.8334 25.1324C5.3361 25.1324 0.866696 20.8285 0.866696 15.5028C0.866696 15.1492 0.88663 14.7982 0.92563 14.4507Z" fill="#FF9600" stroke="white" stroke-width="1.73053"/>
<path d="M7.8107 14.799C7.82323 14.767 7.83983 14.7367 7.8601 14.7089L10.1568 11.5811C10.3076 11.3755 10.5474 11.254 10.8024 11.254C11.0575 11.254 11.2972 11.3755 11.4481 11.5811L13.6347 14.559C14.336 15.2478 14.7318 16.189 14.7336 17.172C14.7336 19.2459 12.9873 20.9272 10.8336 20.9272C8.67997 20.9272 6.93363 19.2459 6.93363 17.172C6.93363 16.2715 7.26297 15.4456 7.8107 14.799Z" fill="#FFC800"/>
</g>
</g>
<defs>
<clipPath id="clip0_1_539">
<rect width="21.6316" height="25.958" fill="white" transform="scale(1.00162)"/>
</clipPath>
<clipPath id="clip1_1_539">
<rect width="21.6316" height="25.958" fill="white" transform="scale(1.00162)"/>
</clipPath>
</defs>
</svg>
