<svg width="98" height="93" viewBox="0 0 98 93" fill="none" xmlns="http://www.w3.org/2000/svg">
<g clip-path="url(#clip0_1_648)">
<path d="M49 0C61.9956 0 74.459 4.88382 83.6482 13.5771C92.8375 22.2703 98 34.0609 98 46.355C98 58.6491 92.8375 70.4397 83.6482 79.1329C74.459 87.8262 61.9956 92.71 49 92.71C36.0044 92.71 23.541 87.8262 14.3518 79.1329C5.16249 70.4397 0 58.6491 0 46.355C0 34.0609 5.16249 22.2703 14.3518 13.5771C23.541 4.88382 36.0044 0 49 0ZM49 7.4168C38.0837 7.4168 27.6145 11.5192 19.8955 18.8215C12.1765 26.1239 7.84 36.0279 7.84 46.355C7.84 56.6821 12.1765 66.5861 19.8955 73.8885C27.6145 81.1908 38.0837 85.2932 49 85.2932C59.9163 85.2932 70.3855 81.1908 78.1045 73.8885C85.8235 66.5861 90.16 56.6821 90.16 46.355C90.16 36.0279 85.8235 26.1239 78.1045 18.8215C70.3855 11.5192 59.9163 7.4168 49 7.4168Z" fill="#E5E5E5"/>
<mask id="mask0_1_648" style="mask-type:luminance" maskUnits="userSpaceOnUse" x="49" y="0" width="48" height="39">
<path d="M49 3.87051C49 3.35633 49.113 2.84777 49.3319 2.37713C49.5508 1.90649 49.8707 1.48405 50.2714 1.13664C50.6721 0.789229 51.1448 0.524441 51.6594 0.359091C52.174 0.193742 52.7194 0.131446 53.2609 0.176157C63.0847 0.987364 72.4212 4.58378 80.0499 10.4952C87.6785 16.4067 93.2443 24.3581 96.0195 33.3099C96.1725 33.8033 96.2153 34.3214 96.1453 34.8313C96.0753 35.3412 95.8939 35.8317 95.6128 36.2718C95.3317 36.7118 94.9569 37.0917 94.5122 37.3874C94.0675 37.6831 93.5628 37.8881 93.0299 37.9893C92.0684 38.172 91.0695 38.0072 90.2303 37.5273C89.391 37.0474 88.7724 36.2874 88.4964 35.3972C86.1652 27.8777 81.49 21.1985 75.0819 16.2329C68.6738 11.2673 60.8312 8.24628 52.5791 7.56486C51.6022 7.48419 50.6927 7.06006 50.0301 6.37614C49.3676 5.69223 49 4.79821 49 3.87051Z" fill="white"/>
</mask>
<g mask="url(#mask0_1_648)">
<path d="M90.5021 35.8848C94.1103 35.8848 97.0354 33.1176 97.0354 29.7041C97.0354 26.2906 94.1103 23.5234 90.5021 23.5234C86.8938 23.5234 83.9688 26.2906 83.9688 29.7041C83.9688 33.1176 86.8938 35.8848 90.5021 35.8848Z" fill="white"/>
</g>
<path d="M49 3.87051C49 3.35633 49.113 2.84777 49.3319 2.37713C49.5508 1.90649 49.8707 1.48405 50.2714 1.13664C50.6721 0.789228 51.1448 0.524441 51.6594 0.359091C52.174 0.193742 52.7194 0.131446 53.2609 0.176157C62.122 0.907867 70.6054 3.90757 77.8015 8.85358C84.9975 13.7996 90.6347 20.5054 94.1086 28.2518C94.3208 28.7251 94.4267 29.235 94.4195 29.7492C94.4123 30.2633 94.2922 30.7704 94.0668 31.2382C93.8413 31.7061 93.5155 32.1245 93.11 32.4669C92.7045 32.8092 92.2281 33.0681 91.7112 33.227C90.7786 33.5136 89.7662 33.4592 88.8739 33.0744C87.9816 32.6896 87.2742 32.0024 86.8912 31.1484C83.9732 24.6414 79.2379 19.0086 73.1932 14.8539C67.1486 10.6992 60.0225 8.1795 52.5791 7.56486C51.6022 7.48419 50.6927 7.06005 50.0301 6.37614C49.3676 5.69223 49 4.79821 49 3.87051Z" fill="#FFC800"/>
</g>
<defs>
<clipPath id="clip0_1_648">
<rect width="98" height="92.71" fill="white"/>
</clipPath>
</defs>
</svg>
