<svg width="80" height="95" viewBox="0 0 80 95" fill="none" xmlns="http://www.w3.org/2000/svg">
<g clip-path="url(#clip0_1_681)">
<path opacity="0.3" d="M76 43H4C1.79086 43 0 44.7909 0 47V79C0 81.2091 1.79086 83 4 83H76C78.2091 83 80 81.2091 80 79V47C80 44.7909 78.2091 43 76 43Z" fill="#AFAFAF"/>
<path d="M8.28906 44.7356C8.28906 39.1991 12.7772 34.7109 18.3137 34.7109H60.7559C66.2924 34.7109 70.7806 39.1991 70.7806 44.7356V71.3193C70.7806 73.5339 68.9853 75.3292 66.7707 75.3292H12.2989C10.0843 75.3292 8.28906 73.5339 8.28906 71.3193V44.7356Z" fill="#9A9A9A"/>
<path d="M6.12109 30.2278C6.12109 24.6913 10.6093 20.2031 16.1458 20.2031H63.2619C68.7984 20.2031 73.2867 24.6913 73.2867 30.2278V60.0514H6.12109V30.2278Z" fill="#9A9A9A"/>
<path d="M76.9185 47.7716H3.10956V59.3H76.9185V47.7716Z" fill="#D8D8D8"/>
<path d="M67.0215 30.4766H74.918C76.0253 30.4766 76.9229 31.3742 76.9229 32.4815V50.7766H67.0215V30.4766Z" fill="#D8D8D8"/>
<path d="M3.10938 32.4815C3.10938 31.3742 4.00701 30.4766 5.11432 30.4766H11.507C12.6143 30.4766 13.512 31.3742 13.512 32.4815V48.7717C13.512 49.879 12.6143 50.7766 11.507 50.7766H5.11432C4.00701 50.7766 3.10938 49.879 3.10938 48.7717V32.4815Z" fill="#D8D8D8"/>
<path d="M6.12109 19.0049C6.12109 17.8976 7.01873 17 8.12603 17H18.6519C19.7592 17 20.6569 17.8976 20.6569 19.0049V39.5027H6.12109V19.0049Z" fill="#D8D8D8"/>
<path d="M58.752 19.0049C58.752 17.8976 59.6497 17 60.757 17H71.2829C72.3902 17 73.2879 17.8976 73.2879 19.0049V39.5027H58.752V19.0049Z" fill="#D8D8D8"/>
<path d="M6.25378 29.1446L20.6019 25.5723V38.2222L6.25378 38.0464V29.1446Z" fill="#EDEDED"/>
<path d="M6.12109 36.7246H20.6569V51.2193H6.12109V36.7246Z" fill="#BFBFBF"/>
<path d="M6.12109 57.5441C6.12109 56.4368 7.01873 55.5391 8.12603 55.5391H18.6519C19.7592 55.5391 20.6569 56.4368 20.6569 57.5441V75.3908C20.6569 76.4981 19.7592 77.3958 18.6519 77.3958H8.12603C7.01873 77.3958 6.12109 76.4981 6.12109 75.3908V57.5441Z" fill="#BFBFBF"/>
<path d="M57.4355 57.5441C57.4355 56.4368 58.3332 55.5391 59.4405 55.5391H69.9664C71.0737 55.5391 71.9715 56.4368 71.9715 57.5441V75.3908C71.9715 76.4981 71.0737 77.3958 69.9664 77.3958H59.4405C58.3332 77.3958 57.4355 76.4981 57.4355 75.3908V57.5441Z" fill="#BFBFBF"/>
<path d="M73.2878 36.7246H58.752V51.2193H73.2878V36.7246Z" fill="#BFBFBF"/>
<path d="M42.4628 54.9121H36.9492V64.6236H42.4628V54.9121Z" fill="#C4C4C4"/>
<path d="M20.6569 60.3086H6.12109V65.1956H20.6569V60.3086Z" fill="#9A9A9A"/>
<path d="M71.9713 60.3086H57.4355V65.1956H71.9713V60.3086Z" fill="#9A9A9A"/>
<path d="M57.4305 68.8184H20.6523V71.4499H57.4305V68.8184Z" fill="#898989"/>
<path d="M58.7462 28.6387H20.6523V31.2702H58.7462V28.6387Z" fill="#898989"/>
<path opacity="0.92" d="M57.4305 60.3086H20.6523V65.1956H57.4305V60.3086Z" fill="#888888"/>
<path opacity="0.92" d="M58.7462 40.3047H20.6523V47.7704H58.7462V40.3047Z" fill="#898989"/>
<path d="M3.10938 51.2168H76.9183V60.3017C76.9183 61.409 76.0206 62.3067 74.9133 62.3067H5.11432C4.00701 62.3067 3.10938 61.409 3.10938 60.3017V51.2168Z" fill="#BFBFBF"/>
<path d="M46.845 43.3828H31.9332C30.2722 43.3828 28.9258 44.7293 28.9258 46.3902V58.5761C28.9258 60.237 30.2722 61.5835 31.9332 61.5835H46.845C48.5059 61.5835 49.8524 60.237 49.8524 58.5761V46.3902C49.8524 44.7293 48.5059 43.3828 46.845 43.3828Z" fill="#D8D8D8"/>
<path d="M33.6017 43.3828H31.9332C30.2723 43.3828 28.9258 44.7292 28.9258 46.3902V58.5761C28.9258 60.237 30.2723 61.5835 31.9332 61.5835H32.9372C33.4626 61.5835 33.8853 61.1516 33.874 60.6263L33.6017 47.9727V43.3828Z" fill="#EDEDED"/>
<path d="M46.845 47.8633H31.9332C30.2722 47.8633 28.9258 49.2098 28.9258 50.8707V62.7966C28.9258 64.4575 30.2722 65.804 31.9332 65.804H46.845C48.5059 65.804 49.8524 64.4575 49.8524 62.7966V50.8707C49.8524 49.2098 48.5059 47.8633 46.845 47.8633Z" fill="#BFBFBF"/>
<path d="M39.0429 58.2496C41.2229 58.2496 42.9902 56.6626 42.9902 54.7049C42.9902 52.7472 41.2229 51.1602 39.0429 51.1602C36.8629 51.1602 35.0957 52.7472 35.0957 54.7049C35.0957 56.6626 36.8629 58.2496 39.0429 58.2496Z" fill="#8A8A8A"/>
<path d="M38.1476 56.6029C38.517 55.8641 39.5714 55.8641 39.9408 56.6029L41.7371 60.1953C42.0704 60.8618 41.5858 61.6461 40.8405 61.6461H37.2479C36.5027 61.6461 36.018 60.8618 36.3513 60.1953L38.1476 56.6029Z" fill="#8A8A8A"/>
<path d="M58.7852 21.3843L73.2559 17.8926V25.8573L58.7852 29.3491V21.3843Z" fill="#EDEDED"/>
<path d="M28.9267 47.3574H20.4844V51.1604H28.9267V47.3574Z" fill="#EDEDED"/>
</g>
<defs>
<clipPath id="clip0_1_681">
<rect width="80" height="90" fill="white" transform="translate(0 5)"/>
</clipPath>
</defs>
</svg>
