<svg width="70" height="65" viewBox="0 0 70 65" fill="none" xmlns="http://www.w3.org/2000/svg">
<rect y="28.5" width="70" height="8" fill="#E5E5E5"/>
<rect y="28.5" width="70" height="8" fill="black" fill-opacity="0.2"/>
<g filter="url(#filter0_dd_1_754)">
<rect width="70" height="57" rx="28.5" fill="#E5E5E5"/>
</g>
<g clip-path="url(#clip0_1_754)">
<g clip-path="url(#clip1_1_754)">
<path fill-rule="evenodd" clip-rule="evenodd" d="M28.0867 12.1563C25.241 10.933 21.9718 13.004 21.9718 16.1616V24.9091C21.9718 31.3104 26.3546 36.6645 32.2181 38.0027C33.2287 38.3827 33.5393 38.8939 33.5793 39.3013V39.3899V39.3957V39.4759C33.5687 39.7279 33.4591 40.0701 33.1536 40.3471H29.9409C29.1526 40.3471 28.5136 40.9861 28.5136 41.7744C28.5136 41.935 28.5401 42.0893 28.5889 42.2333H27.0182C26.2272 42.2333 25.5859 42.8746 25.5859 43.6657C25.5859 44.4568 26.2272 45.098 27.0182 45.098H42.7601C43.5512 45.098 44.1925 44.4568 44.1925 43.6657C44.1925 42.8746 43.5512 42.2333 42.7601 42.2333H41.4615C41.5103 42.0893 41.5368 41.935 41.5368 41.7744C41.5368 40.9861 40.8978 40.3471 40.1095 40.3471H36.8507C36.5685 40.1241 36.4241 39.8499 36.3681 39.6133V39.3309C36.4457 38.8726 36.8765 38.305 38.2268 37.9375C43.9533 36.498 48.2011 31.211 48.2011 24.9091V16.1616C48.2011 13.004 44.9319 10.933 42.0862 12.1563C39.4325 13.2971 36.5919 14.3416 35.0864 14.3416C33.581 14.3416 30.7403 13.2971 28.0867 12.1563ZM18.3501 27.8748C16.6223 26.9664 15.6822 24.9485 16.2003 22.9887C16.3068 22.5859 16.7187 22.3494 17.1203 22.4605L17.2599 22.4991C18.4603 22.8312 19.4022 23.6498 19.93 24.6841C20.2782 24.8866 20.5097 25.2663 20.5026 25.6977C20.4863 26.6997 20.6509 28.4075 21.2087 30.1485C21.7689 31.8967 22.6856 33.5565 24.0855 34.622C24.5909 35.0066 24.6887 35.7281 24.3041 36.2335C24.2195 36.3446 24.1187 36.436 24.0075 36.5069C23.0562 38.3441 20.8665 39.2005 18.8871 38.4278C18.506 38.2791 18.3129 37.8477 18.4559 37.4643L18.5711 37.1556C19.0073 35.9863 19.9108 35.1374 20.9883 34.7401C20.6797 34.3379 20.4044 33.9164 20.1588 33.4847C18.2609 33.8411 16.3212 32.8362 15.5567 30.9685C15.3991 30.5836 15.5813 30.1388 15.9637 29.975L16.1139 29.9107C16.9626 29.5472 17.86 29.4849 18.6894 29.6762C18.5379 29.0503 18.4273 28.4423 18.3501 27.8748ZM49.6154 24.7459C49.3208 24.9585 49.1315 25.3069 49.1379 25.6977C49.1542 26.6997 48.9896 28.4075 48.4318 30.1485C47.8717 31.8967 46.9549 33.5565 45.555 34.622C45.0496 35.0066 44.9518 35.7281 45.3364 36.2335C45.4351 36.3632 45.556 36.4661 45.6897 36.5408C46.6503 38.3546 48.8252 39.1957 50.7924 38.4278C51.1735 38.2791 51.3666 37.8477 51.2236 37.4643L51.1084 37.1556C50.6681 35.9753 49.7516 35.1214 48.6608 34.729C48.9786 34.3134 49.2612 33.8774 49.5122 33.4309C51.4859 33.9262 53.5623 32.9168 54.3598 30.9685C54.5174 30.5836 54.3352 30.1388 53.9528 29.975L53.8026 29.9107C52.852 29.5035 51.8405 29.4743 50.9317 29.7559C51.0997 29.0756 51.2193 28.4152 51.3 27.8035C53.0398 26.8373 53.9272 24.7427 53.3135 22.7768C53.1894 22.3792 52.7679 22.1618 52.372 22.2911L52.2291 22.3378C51.0073 22.7369 50.0835 23.6414 49.6154 24.7459Z" fill="#AFAFAF"/>
</g>
</g>
<defs>
<filter id="filter0_dd_1_754" x="0" y="0" width="70" height="65" filterUnits="userSpaceOnUse" color-interpolation-filters="sRGB">
<feFlood flood-opacity="0" result="BackgroundImageFix"/>
<feColorMatrix in="SourceAlpha" type="matrix" values="0 0 0 0 0 0 0 0 0 0 0 0 0 0 0 0 0 0 127 0" result="hardAlpha"/>
<feOffset dy="8"/>
<feComposite in2="hardAlpha" operator="out"/>
<feColorMatrix type="matrix" values="0 0 0 0 0.898039 0 0 0 0 0.898039 0 0 0 0 0.898039 0 0 0 1 0"/>
<feBlend mode="normal" in2="BackgroundImageFix" result="effect1_dropShadow_1_754"/>
<feColorMatrix in="SourceAlpha" type="matrix" values="0 0 0 0 0 0 0 0 0 0 0 0 0 0 0 0 0 0 127 0" result="hardAlpha"/>
<feOffset dy="8"/>
<feComposite in2="hardAlpha" operator="out"/>
<feColorMatrix type="matrix" values="0 0 0 0 0 0 0 0 0 0 0 0 0 0 0 0 0 0 0.2 0"/>
<feBlend mode="normal" in2="effect1_dropShadow_1_754" result="effect2_dropShadow_1_754"/>
<feBlend mode="normal" in="SourceGraphic" in2="effect2_dropShadow_1_754" result="shape"/>
</filter>
<clipPath id="clip0_1_754">
<rect width="42" height="34" fill="white" transform="translate(14 11.5)"/>
</clipPath>
<clipPath id="clip1_1_754">
<rect width="42" height="34" fill="white" transform="translate(14 11.5)"/>
</clipPath>
</defs>
</svg>
