<svg width="52" height="76" viewBox="0 0 52 76" fill="none" xmlns="http://www.w3.org/2000/svg">
<rect width="52" height="76" fill="#5ACD05"/>
<g clip-path="url(#clip0_0_7)">
<path d="M15.0179 31.4309C15.0179 30.7636 15.5588 30.2227 16.2261 30.2227H17.8371C18.5044 30.2227 19.0453 30.7636 19.0453 31.4309C19.0453 32.0982 18.5044 32.6391 17.8371 32.6391H16.2261C15.5588 32.6391 15.0179 32.0982 15.0179 31.4309Z" fill="white"/>
<path d="M15.0179 37.8744C15.0179 37.2071 15.5588 36.6662 16.2261 36.6662H17.8371C18.5044 36.6662 19.0453 37.2071 19.0453 37.8744C19.0453 38.5417 18.5044 39.0826 17.8371 39.0826H16.2261C15.5588 39.0826 15.0179 38.5417 15.0179 37.8744Z" fill="white"/>
<path d="M15.0179 44.318C15.0179 43.6506 15.5588 43.1097 16.2261 43.1097H17.8371C18.5044 43.1097 19.0453 43.6506 19.0453 44.318C19.0453 44.9852 18.5044 45.5262 17.8371 45.5262H16.2261C15.5588 45.5262 15.0179 44.9852 15.0179 44.318Z" fill="white"/>
<path fill-rule="evenodd" clip-rule="evenodd" d="M17.4331 30.222V32.6385H17.8359C18.5032 32.6385 19.0441 32.0975 19.0441 31.4303C19.0441 30.763 18.5032 30.222 17.8359 30.222H17.4331ZM17.8359 28.611H17.8348C18.3746 27.6496 19.404 27 20.5851 27H33.7114C35.4522 27 36.8633 28.4112 36.8633 30.152V45.5963C36.8633 47.3371 35.4522 48.7483 33.7114 48.7483H20.5851C19.404 48.7483 18.3747 48.0987 17.8348 47.1373H17.8359C19.3929 47.1373 20.6551 45.8751 20.6551 44.3181C20.6551 42.7611 19.3929 41.4989 17.8359 41.4989H17.4331V40.6934H17.8359C19.3929 40.6934 20.6551 39.4313 20.6551 37.8742C20.6551 36.3173 19.3929 35.055 17.8359 35.055H17.4331V34.2495H17.8359C19.3929 34.2495 20.6551 32.9873 20.6551 31.4303C20.6551 29.8732 19.3929 28.611 17.8359 28.611ZM17.8359 45.5263H17.4331V43.1099H17.8359C18.5032 43.1099 19.0441 43.6508 19.0441 44.3181C19.0441 44.9854 18.5032 45.5263 17.8359 45.5263ZM17.8359 39.0825H17.4331V36.6661H17.8359C18.5032 36.6661 19.0441 37.207 19.0441 37.8742C19.0441 38.5416 18.5032 39.0825 17.8359 39.0825ZM24.0784 30.6247C23.5224 30.6247 23.0716 31.0755 23.0716 31.6316C23.0716 32.1877 23.5224 32.6384 24.0784 32.6384H32.5361C33.0922 32.6384 33.543 32.1877 33.543 31.6316C33.543 31.0755 33.0922 30.6247 32.5361 30.6247H24.0784ZM23.0716 36.4645C23.0716 35.9085 23.5224 35.4577 24.0784 35.4577H32.5361C33.0922 35.4577 33.543 35.9085 33.543 36.4645C33.543 37.0206 33.0922 37.4714 32.5361 37.4714H24.0784C23.5224 37.4714 23.0716 37.0206 23.0716 36.4645ZM24.0784 40.2907C23.5224 40.2907 23.0716 40.7414 23.0716 41.2975C23.0716 41.8536 23.5224 42.3044 24.0784 42.3044H30.1196C30.6757 42.3044 31.1265 41.8536 31.1265 41.2975C31.1265 40.7414 30.6757 40.2907 30.1196 40.2907H24.0784Z" fill="white"/>
</g>
<defs>
<clipPath id="clip0_0_7">
<rect width="22" height="22" fill="white" transform="translate(15 27)"/>
</clipPath>
</defs>
</svg>
