<svg width="244" height="111" viewBox="0 0 244 111" fill="none" xmlns="http://www.w3.org/2000/svg">
<path d="M1 97.7236L1 5.9834C1 5.98123 1.00011 5.97473 1.00391 5.96191C1.00805 5.94804 1.01776 5.92198 1.04004 5.88477C1.08667 5.80697 1.18 5.6915 1.35449 5.54688C1.71022 5.25204 2.29572 4.92239 3.14453 4.58203C4.83263 3.90516 7.33531 3.27502 10.5 2.73828C16.8135 1.66753 25.5743 1 35.2773 1L208.723 1C218.426 1 227.187 1.66753 233.5 2.73828C236.665 3.27502 239.167 3.90516 240.855 4.58203C241.704 4.92239 242.29 5.25204 242.646 5.54688C242.82 5.6915 242.913 5.80697 242.96 5.88477C242.982 5.92198 242.992 5.94804 242.996 5.96191C243 5.97474 243 5.98123 243 5.9834V97.7236C243 97.7258 243 97.7323 242.996 97.7451C242.992 97.759 242.982 97.7851 242.96 97.8223C242.913 97.9001 242.82 98.0155 242.646 98.1602C242.29 98.455 241.704 98.7846 240.855 99.125C239.167 99.8019 236.665 100.432 233.5 100.969C227.187 102.04 218.426 102.707 208.723 102.707H143.048V109.528C142.939 109.562 142.8 109.6 142.626 109.638C141.953 109.783 140.982 109.895 139.875 109.954C137.644 110.073 135.082 109.965 133.579 109.599L105.428 102.735L105.311 102.707H35.2773C25.5743 102.707 16.8135 102.04 10.5 100.969C7.33532 100.432 4.83263 99.8019 3.14453 99.125C2.29572 98.7846 1.71022 98.455 1.35449 98.1602C1.18002 98.0155 1.08668 97.9001 1.04004 97.8223C1.01776 97.7851 1.00805 97.759 1.00391 97.7451C1.00009 97.7323 1 97.7258 1 97.7236Z" fill="white" stroke="#E7E5E5" stroke-width="2"/>
</svg>
